<svg xmlns="http://www.w3.org/2000/svg" viewBox="0 0 512 512">
  <rect width="512" height="512" fill="#FF6B9D" rx="80"/>
  <path fill="#fff" d="M256 120c-50 0-90 40-90 90 0 30 15 55 38 70v50c0 15 12 27 27 27h50c15 0 27-12 27-27v-50c23-15 38-40 38-70 0-50-40-90-90-90z"/>
  <circle fill="#fff" cx="220" cy="190" r="12"/>
  <circle fill="#fff" cx="292" cy="190" r="12"/>
  <path fill="#fff" d="M256 220c-8 0-15 7-15 15v15h30v-15c0-8-7-15-15-15z"/>
  <text x="256" y="420" font-family="Arial, sans-serif" font-size="120" font-weight="bold" fill="#fff" text-anchor="middle">BB</text>
</svg>
